<svg xmlns="http://www.w3.org/2000/svg" viewBox="0 0 100 70.36"><defs><style>.cls-1{fill:#701c74;}</style></defs><g id="Layer_2" data-name="Layer 2"><g id="Layer_1-2" data-name="Layer 1"><path class="cls-1" d="M4.8,0Q50,0,95.13,0c2.42,0,4.08.81,4.87,3.15V4.71c-.79,2.35-2.45,3.16-4.88,3.16q-45.25-.08-90.51,0a6.94,6.94,0,0,1-1.83-.19A3.82,3.82,0,0,1,0,3.93c0-.13,0-.26,0-.39A3.92,3.92,0,0,1,3.63,0C4,0,4.41,0,4.8,0Z"/><path class="cls-1" d="M95.13,31.25c2.42,0,4.08.8,4.87,3.15V36c-.79,2.34-2.45,3.15-4.88,3.14q-45.25,0-90.51,0a6.94,6.94,0,0,1-1.83-.19A3.82,3.82,0,0,1,0,35.18c0-.13,0-.26,0-.39a3.92,3.92,0,0,1,3.61-3.5c.39,0,.78,0,1.17,0Q50,31.28,95.13,31.25Z"/><path class="cls-1" d="M95.13,62.5c2.42,0,4.08.8,4.87,3.15v1.56c-.79,2.34-2.45,3.16-4.88,3.15q-45.25,0-90.51,0a6.94,6.94,0,0,1-1.83-.19A3.83,3.83,0,0,1,0,66.43c0-.13,0-.26,0-.39a3.92,3.92,0,0,1,3.61-3.5c.39,0,.78,0,1.17,0Q50,62.53,95.13,62.5Z"/></g></g></svg>