<svg xmlns="http://www.w3.org/2000/svg" viewBox="0 0 100 101.95"><defs><style>.cls-1{fill:#4ac4f4;}</style></defs><g id="Layer_2" data-name="Layer 2"><g id="Layer_1-2" data-name="Layer 1"><path class="cls-1" d="M7.89,98.06c-2.43,3.81-4.07,4.67-6.26,3.26s-2.22-3.39.22-7.08c11.46-17.32,27.8-25.82,48.39-26.67,20.94,1,37.36,9.93,48.64,27.84,1.16,1.84,1.76,3.61.09,5.4s-4.35,1.32-6.11-1.56a49.93,49.93,0,0,0-85-1.19Z"/><path class="cls-1" d="M49.93,50.11a21.43,21.43,0,1,0-21.37-21.5A21.34,21.34,0,0,0,49.93,50.11ZM21.32,28.9a28.68,28.68,0,1,1,57.36-.29,28.68,28.68,0,0,1-57.36.29Z"/></g></g></svg>