<svg xmlns="http://www.w3.org/2000/svg" xmlns:xlink="http://www.w3.org/1999/xlink" viewBox="0 0 20 20"><defs><style>.cls-1{fill:none;}.cls-2{clip-path:url(#clip-path);}.cls-3{fill:#d4c0d8;}</style><clipPath id="clip-path" transform="translate(0)"><rect class="cls-1" width="20" height="20"/></clipPath></defs><g id="Layer_2" data-name="Layer 2"><g id="Layer_1-2" data-name="Layer 1"><g class="cls-2"><path class="cls-3" d="M19.81,18.91l-5.16-5.08a8.17,8.17,0,0,0,2.18-5.55A8.34,8.34,0,0,0,8.42,0,8.35,8.35,0,0,0,0,8.28a8.35,8.35,0,0,0,8.42,8.28,8.4,8.4,0,0,0,5.29-1.85l5.19,5.1a.65.65,0,0,0,.91,0A.62.62,0,0,0,19.81,18.91ZM8.42,15.29a7.07,7.07,0,0,1-7.12-7,7.07,7.07,0,0,1,7.12-7,7.07,7.07,0,0,1,7.12,7A7.07,7.07,0,0,1,8.42,15.29Z" transform="translate(0)"/></g></g></g></svg>