<svg xmlns="http://www.w3.org/2000/svg" viewBox="0 0 160.96 190.76"><defs><style>.cls-1{opacity:0.75;}.cls-2{fill:#4ac4f4;}</style></defs><g id="Layer_2" data-name="Layer 2"><g id="Layer_1-2" data-name="Layer 1"><g class="cls-1"><path class="cls-2" d="M125,0c7,0,10.63,3.6,10.64,10.67V25.3h2c4.47,0,8.94,0,13.41,0,6,0,9.84,3.83,9.84,9.76q0,54.66,0,109.32a22.08,22.08,0,0,1-7.11,16.28c-8.16,7.82-16.44,15.51-24.66,23.25-3.68,3.47-8.19,5.27-13,6.46a9.17,9.17,0,0,0-1,.38H32.77c-3.61-1.23-6.36-3.32-7.2-7.27a16.71,16.71,0,0,1-.25-3.32c0-4.83,0-9.66,0-14.71H15.89c-2.24,0-4.47,0-6.7,0A9.17,9.17,0,0,1,0,156.69c0-.68,0-1.36,0-2.05V10.87C0,3.56,3.55,0,10.82,0Zm-2.93,181.08,28.29-26.61-.29-.48c-7.55,0-15.11-.1-22.65,0-3.41.06-5.54,2.55-5.56,6,0,6.51,0,13,0,19.53A13.48,13.48,0,0,0,122.07,181.08Zm-89.87-1.2c0,3.5.48,4,4,4h74.88c1.22,0,2.45-.14,3.9-.23v-2.34c0-6.7,0-13.4,0-20.11a18.62,18.62,0,0,1,.41-4.42c1.54-6,6.24-9.57,12.55-9.63,7.39-.06,14.78,0,22.16,0,3.89,0,3.89,0,3.89-3.88q0-53.53,0-107.08c0-3.49-.51-4-4-4H36.23c-3.5,0-4,.52-4,4ZM10.33,158.6c3,0,6.08,0,9.13,0h5.85V156c0-40,.06-80-.07-120,0-6.25,3.93-10.81,10.84-10.77,30.05.16,60.11.07,90.17.07h2.52v-14c0-4-.37-4.4-4.33-4.4H11.18c-.62,0-1.25,0-1.86,0A2.29,2.29,0,0,0,7,9.3c0,.68,0,1.37,0,2v130c0,4.59,0,9.18,0,13.78C7,157.9,7.62,158.58,10.33,158.6Z"/><path class="cls-2" d="M124.58,103.45a16.5,16.5,0,0,1,2.23.09,3.3,3.3,0,0,1,3,3.2,3.41,3.41,0,0,1-3,3.49,13.87,13.87,0,0,1-2,.07H93q-16.29,0-32.57,0c-2.81,0-4.46-1.77-3.94-4.11a3.1,3.1,0,0,1,2.77-2.62,17.53,17.53,0,0,1,2.41-.11Q93.12,103.44,124.58,103.45Z"/><path class="cls-2" d="M129.85,60.81a3.49,3.49,0,0,1-3.37,3.52,11.61,11.61,0,0,1-1.67,0H61.34A11.27,11.27,0,0,1,59,64.14a3.33,3.33,0,0,1,0-6.47,11.2,11.2,0,0,1,2.39-.23q16,0,32,0H124.8a13.26,13.26,0,0,1,1.67,0A3.51,3.51,0,0,1,129.85,60.81Z"/><path class="cls-2" d="M125.72,80.46c2.53,0,4.05,1.27,4.12,3.32s-1.46,3.51-4.1,3.52h-64c-.62,0-1.24,0-1.86,0a3.41,3.41,0,1,1,.17-6.8c5.33-.06,10.67,0,16,0h49.69Z"/><path class="cls-2" d="M97.62,126.67a3,3,0,0,1,2.3,3,3.08,3.08,0,0,1-2.19,3.3,8.41,8.41,0,0,1-2.56.32c-5.64,0-11.29,0-16.93,0-5.9,0-11.79,0-17.68,0-3.19,0-5-2.45-3.83-4.93.83-1.69,2.38-2,4.08-2h14.7c6.51,0,13,0,19.54,0A9.26,9.26,0,0,1,97.62,126.67Z"/><path class="cls-2" d="M93.17,87.31h0Z"/></g></g></g></svg>