<svg xmlns="http://www.w3.org/2000/svg" viewBox="0 0 82.41 100"><defs><style>.cls-1{fill:#4ac4f4;}</style></defs><g id="Layer_2" data-name="Layer 2"><g id="Layer_1-2" data-name="Layer 1"><path class="cls-1" d="M22.4,49.89a25.6,25.6,0,0,1,19.54-8.81,24.77,24.77,0,0,1,11.3,2.84c8.8,4.27,19.38,1.36,25.45-5.32A1.38,1.38,0,0,0,79.05,37Q73.94,20.69,68.85,4.31c-.07-.25-.18-.5-.27-.74a.75.75,0,0,0-.24.09l-.28.24A26,26,0,0,1,51.61,11,24,24,0,0,1,39.24,8.4,20.45,20.45,0,0,0,26.17,6.54,21.69,21.69,0,0,0,11.44,16a1.8,1.8,0,0,0-.24,1.72q5,16.05,10,32.12l.29.94a2.54,2.54,0,0,0,.3-.18C22,50.37,22.19,50.12,22.4,49.89Zm8.38,46.86c1-.3,1.29-1.22.82-2.74L19.06,53.69,6.53,13.37a7.37,7.37,0,0,0-.37-1.06,1.49,1.49,0,0,0-1.81-.82A1.42,1.42,0,0,0,3.21,13a5,5,0,0,0,.27,1.27Q16,54.6,28.55,94.92C29,96.45,29.76,97.05,30.78,96.75Zm.95,3a4.78,4.78,0,0,1-5.81-2.73c-.17-.4-.29-.82-.42-1.23L.56,15.63c-1.07-3.44-.72-4.68,2-6.94l1.6-.5a5,5,0,0,1,4.73,2.4,17,17,0,0,1,.89,2.16c.25-.26.46-.46.65-.69a25.37,25.37,0,0,1,28.1-7.48c1.66.61,3.22,1.48,4.89,2.07a20.78,20.78,0,0,0,14.87-.34A25.61,25.61,0,0,0,66.61.84a2.93,2.93,0,0,1,4.79,1,10.09,10.09,0,0,1,.34,1c.66,2.11,1.31,4.22,2,6.33,2.81,9,5.6,18.08,8.45,27.11a4,4,0,0,1-.92,4.28,25.52,25.52,0,0,1-27.7,7c-1.72-.63-3.34-1.54-5.07-2.13A22.17,22.17,0,0,0,24.4,52.48c-.44.55-1,1-1.47,1.54a1.06,1.06,0,0,0-.22.61,2.8,2.8,0,0,0,.21.72q5.9,19,11.81,38c.72,2.33.23,4.27-1.4,5.58A4.89,4.89,0,0,1,31.73,99.79Z"/></g></g></svg>