<svg xmlns="http://www.w3.org/2000/svg" viewBox="0 0 82.42 99.99"><defs><style>.cls-1{fill:#4ac4f4;}</style></defs><g id="Layer_2" data-name="Layer 2"><g id="Layer_1-2" data-name="Layer 1"><path class="cls-1" d="M21.2,49.84q-5-16-10-32.14A1.66,1.66,0,0,1,11.47,16a21.65,21.65,0,0,1,14.7-9.46,20.38,20.38,0,0,1,13,1.87A24.41,24.41,0,0,0,51.62,11,25.86,25.86,0,0,0,68,3.91c.11-.11.21-.16.32-.27a.41.41,0,0,0,.21-.05,2.77,2.77,0,0,1,.27.75c3.42,10.9,6.79,21.81,10.21,32.72a1.31,1.31,0,0,1-.37,1.55c-6,6.69-16.63,9.57-25.45,5.3a25.14,25.14,0,0,0-11.29-2.84,25.8,25.8,0,0,0-19.57,8.82,6.14,6.14,0,0,1-.58.7,1.38,1.38,0,0,0-.27.21A8.29,8.29,0,0,1,21.2,49.84Z"/><path class="cls-1" d="M19.06,53.69C23.23,67.11,27.4,80.59,31.62,94c.43,1.55.16,2.46-.85,2.73s-1.77-.27-2.19-1.82Q16,54.57,3.5,14.28A3.67,3.67,0,0,1,3.23,13a1.36,1.36,0,0,1,1.12-1.5,1.53,1.53,0,0,1,1.82.8,6.74,6.74,0,0,1,.38,1.07C10.72,26.79,14.89,40.27,19.06,53.69Z"/><path class="cls-1" d="M10.4,12.09A25.23,25.23,0,0,1,38.47,4.6c1.66.59,3.26,1.45,4.92,2a20.6,20.6,0,0,0,14.86-.32A25.62,25.62,0,0,0,66.6.86a2.94,2.94,0,0,1,4.81,1l.32,1c.64,2.14,1.34,4.22,2,6.36,2.83,9,5.61,18.08,8.45,27.11a4,4,0,0,1-.91,4.28,25.58,25.58,0,0,1-27.7,6.95c-1.71-.64-3.37-1.55-5.08-2.14a22.27,22.27,0,0,0-24.06,7.06c-.43.59-1,1-1.45,1.55a1,1,0,0,0-.27.64,3.15,3.15,0,0,0,.22.7c4,12.67,7.86,25.34,11.82,38a4.81,4.81,0,0,1-1.39,5.56,3.92,3.92,0,0,1-1.61.85,4.82,4.82,0,0,1-5.83-2.72c-.16-.38-.26-.8-.43-1.23Q13.05,55.72.56,15.62c-1.07-3.42-.7-4.65,2-6.9.53-.21,1.06-.37,1.6-.53,2,0,3.69.58,4.7,2.4a18.35,18.35,0,0,1,.91,2.14ZM26.17,6.53A21.65,21.65,0,0,0,11.47,16a1.66,1.66,0,0,0-.27,1.71q5.06,16.13,10,32.14a8.29,8.29,0,0,0,.32,1,1.38,1.38,0,0,1,.27-.21,6.14,6.14,0,0,0,.58-.7,25.8,25.8,0,0,1,19.57-8.82,25.14,25.14,0,0,1,11.29,2.84c8.82,4.27,19.41,1.39,25.45-5.3a1.31,1.31,0,0,0,.37-1.55C75.63,26.15,72.26,15.24,68.84,4.34a2.77,2.77,0,0,0-.27-.75.41.41,0,0,1-.21.05c-.11.11-.21.16-.32.27A25.86,25.86,0,0,1,51.62,11,24.41,24.41,0,0,1,39.22,8.4,20.38,20.38,0,0,0,26.17,6.53ZM31.62,94c-4.22-13.42-8.39-26.9-12.56-40.32S10.72,26.79,6.55,13.37a6.74,6.74,0,0,0-.38-1.07,1.53,1.53,0,0,0-1.82-.8A1.36,1.36,0,0,0,3.23,13a3.67,3.67,0,0,0,.27,1.28Q16,54.63,28.58,94.92c.42,1.55,1.17,2.14,2.19,1.82S32.05,95.56,31.62,94Z"/></g></g></svg>